<svg xmlns="http://www.w3.org/2000/svg" width="1024" height="1024" viewBox="0 0 1024 1024">
  <defs>
    <linearGradient id="bg" x1="0" y1="0" x2="1" y2="1">
      <stop offset="0%" stop-color="#18202b"/>
      <stop offset="100%" stop-color="#27384c"/>
    </linearGradient>
  </defs>

  <rect width="1024" height="1024" rx="210" fill="url(#bg)"/>

  <g stroke="#ffffff" stroke-width="58" stroke-linecap="round">
    <line x1="512" y1="367" x2="512" y2="170"/>
    <line x1="512" y1="657" x2="512" y2="854"/>
    <line x1="367" y1="512" x2="170" y2="512"/>
    <line x1="657" y1="512" x2="854" y2="512"/>
    <line x1="410" y1="410" x2="270" y2="270"/>
    <line x1="614" y1="410" x2="754" y2="270"/>
    <line x1="410" y1="614" x2="270" y2="754"/>
    <line x1="614" y1="614" x2="754" y2="754"/>
  </g>

  <g fill="#ffffff">
    <circle cx="512" cy="150" r="70"/>
    <circle cx="512" cy="874" r="70"/>
    <circle cx="150" cy="512" r="70"/>
    <circle cx="874" cy="512" r="70"/>
    <circle cx="245" cy="245" r="70"/>
    <circle cx="779" cy="245" r="70"/>
    <circle cx="245" cy="779" r="70"/>
    <circle cx="779" cy="779" r="70"/>
    <circle cx="512" cy="512" r="145"/>
  </g>

  <path d="M430 465 L512 415 L594 465 L594 559 L512 609 L430 559 Z"
        fill="#27384c"/>
  <circle cx="512" cy="512" r="38" fill="#ffffff"/>
</svg>
